G75*
%MOIN*%
%OFA0B0*%
%FSLAX25Y25*%
%IPPOS*%
%LPD*%
%AMOC8*
5,1,8,0,0,1.08239X$1,22.5*
%
%ADD10C,0.00000*%
%ADD11R,0.01181X0.04724*%
%ADD12C,0.07000*%
%ADD13R,0.07400X0.07400*%
%ADD14C,0.07400*%
%ADD15R,0.03937X0.18110*%
%ADD16R,0.06299X0.13386*%
%ADD17R,0.07087X0.06299*%
%ADD18R,0.07098X0.06299*%
%ADD19C,0.07600*%
%ADD20C,0.01000*%
%ADD21C,0.04165*%
D10*
X0005541Y0001089D02*
X0005871Y0276093D01*
X0115964Y0275991D01*
X0115904Y0001000D01*
X0005541Y0001089D01*
D11*
X0019645Y0188735D03*
X0022204Y0188735D03*
X0024763Y0188735D03*
X0027322Y0188735D03*
X0029881Y0188735D03*
X0032440Y0188735D03*
X0034999Y0188735D03*
X0037558Y0188735D03*
X0040117Y0188735D03*
X0042676Y0188735D03*
X0042676Y0211570D03*
X0040117Y0211570D03*
X0037558Y0211570D03*
X0034999Y0211570D03*
X0032440Y0211570D03*
X0029881Y0211570D03*
X0027322Y0211570D03*
X0024763Y0211570D03*
X0022204Y0211570D03*
X0019645Y0211570D03*
D12*
X0015604Y0169413D03*
X0025604Y0169413D03*
X0035604Y0169413D03*
X0045604Y0169413D03*
X0055604Y0169413D03*
X0065604Y0169413D03*
X0075604Y0169413D03*
X0085604Y0169413D03*
X0100717Y0131186D03*
X0100717Y0121186D03*
X0100717Y0111186D03*
X0100717Y0101186D03*
X0100717Y0091186D03*
X0100717Y0081186D03*
X0100717Y0071186D03*
X0100717Y0061186D03*
X0100717Y0051186D03*
X0100717Y0041186D03*
X0020841Y0041089D03*
X0020841Y0051089D03*
X0020841Y0061089D03*
X0020841Y0071089D03*
X0020841Y0081089D03*
X0020841Y0091089D03*
X0020841Y0101089D03*
X0020841Y0111089D03*
X0020841Y0121089D03*
X0020841Y0131089D03*
D13*
X0103163Y0237590D03*
X0103797Y0213819D03*
D14*
X0102797Y0203819D03*
X0103797Y0193819D03*
X0102797Y0183819D03*
X0104163Y0247590D03*
X0103163Y0257590D03*
X0104163Y0267590D03*
D15*
X0059014Y0262269D03*
X0051140Y0262269D03*
D16*
X0041691Y0241797D03*
X0068463Y0241797D03*
D17*
X0057327Y0204152D03*
X0057327Y0193129D03*
D18*
X0071948Y0193203D03*
X0071948Y0204400D03*
D19*
X0029496Y0245109D03*
X0029496Y0254952D03*
X0029496Y0264794D03*
X0016504Y0264794D03*
X0016504Y0254952D03*
X0016504Y0245109D03*
D20*
X0016504Y0254952D02*
X0029496Y0254952D01*
X0036814Y0262269D01*
X0051140Y0262269D01*
X0059014Y0262269D02*
X0064335Y0267590D01*
X0104163Y0267590D01*
X0104960Y0267590D01*
X0111460Y0261089D01*
X0111460Y0260708D01*
X0111452Y0260700D01*
X0111452Y0222089D01*
X0111452Y0221474D01*
X0103797Y0213819D01*
X0102797Y0203819D02*
X0092112Y0203819D01*
X0088841Y0207089D01*
X0088841Y0214089D01*
X0086841Y0216089D01*
X0033841Y0216089D01*
X0032440Y0214688D01*
X0032440Y0211570D01*
X0029881Y0211570D02*
X0029841Y0210610D01*
X0029841Y0216751D01*
X0033180Y0220089D01*
X0081841Y0220089D01*
X0078841Y0222089D02*
X0081841Y0225089D01*
X0081841Y0243590D01*
X0085841Y0247590D01*
X0085342Y0247590D01*
X0085841Y0247590D02*
X0104163Y0247590D01*
X0083841Y0212089D02*
X0065841Y0212089D01*
X0063841Y0210089D01*
X0063841Y0204089D01*
X0063778Y0204152D01*
X0057327Y0204152D01*
X0057327Y0211575D01*
X0057341Y0211589D01*
X0057327Y0193129D02*
X0049881Y0193129D01*
X0048841Y0192089D01*
X0057327Y0193129D02*
X0071874Y0193129D01*
X0071948Y0193203D01*
X0093413Y0193203D01*
X0102797Y0183819D01*
X0100841Y0176089D02*
X0107841Y0176089D01*
X0111443Y0179691D01*
X0111443Y0180089D01*
X0111443Y0186173D01*
X0103797Y0193819D01*
X0094841Y0182089D02*
X0100841Y0176089D01*
X0098841Y0175089D02*
X0098841Y0137089D01*
X0052841Y0091089D01*
X0020841Y0091089D01*
X0053841Y0074089D02*
X0020841Y0041089D01*
X0100620Y0041089D01*
X0100717Y0041186D01*
X0053841Y0085089D02*
X0067841Y0099089D01*
X0053841Y0085089D02*
X0053841Y0074089D01*
X0052841Y0095089D02*
X0052841Y0096089D01*
X0095841Y0139089D01*
X0095841Y0174089D01*
X0091841Y0178089D01*
X0035841Y0178089D01*
X0033841Y0178267D01*
X0027322Y0184786D01*
X0027322Y0188735D01*
X0024763Y0188735D02*
X0024763Y0184168D01*
X0031841Y0176089D01*
X0090841Y0176089D01*
X0092841Y0174089D01*
X0092841Y0142089D01*
X0047841Y0097089D01*
X0035604Y0169413D02*
X0035604Y0169852D01*
X0037137Y0180089D02*
X0032440Y0184786D01*
X0032440Y0188735D01*
X0034999Y0188735D02*
X0034999Y0185786D01*
X0038696Y0182089D01*
X0094841Y0182089D01*
X0093841Y0180089D02*
X0037137Y0180089D01*
X0039071Y0184273D02*
X0080025Y0184273D01*
X0082841Y0187089D01*
X0078152Y0204400D02*
X0071948Y0204400D01*
X0078152Y0204400D02*
X0079841Y0206089D01*
X0078841Y0222089D02*
X0030841Y0222089D01*
X0027322Y0218570D01*
X0027322Y0211570D01*
X0022841Y0217089D02*
X0019645Y0213893D01*
X0019645Y0211570D01*
X0010362Y0197019D02*
X0019645Y0188735D01*
X0019645Y0182285D01*
X0023841Y0178089D01*
X0019645Y0173454D02*
X0019645Y0188735D01*
X0019645Y0173454D02*
X0015604Y0169413D01*
X0010362Y0197019D02*
X0010362Y0268086D01*
X0013849Y0271574D01*
X0026839Y0271574D01*
X0029496Y0268917D01*
X0029496Y0264794D01*
X0016504Y0264794D01*
X0037558Y0188735D02*
X0037558Y0185786D01*
X0039071Y0184273D01*
X0093841Y0180089D02*
X0098841Y0175089D01*
D21*
X0083841Y0212089D03*
X0079841Y0206089D03*
X0081841Y0220089D03*
X0082841Y0187089D03*
X0063841Y0204089D03*
X0057341Y0211589D03*
X0048841Y0192089D03*
X0023841Y0178089D03*
X0022841Y0217089D03*
X0047841Y0097089D03*
X0052841Y0096089D03*
X0067841Y0099089D03*
M02*
