%
M48
M72
T01C0.0217
T02C0.0394
T03C0.0400
%
T01
X4784Y9709
X5284Y9609
X6784Y9909
X8284Y18709
X7984Y20609
X8384Y21209
X8184Y22009
X6384Y20409
X5734Y21159
X4884Y19209
X2384Y17809
X2284Y21709
T02
X2084Y4109
X2084Y5109
X2084Y6109
X2084Y7109
X2084Y8109
X2084Y9109
X2084Y10109
X2084Y11109
X2084Y12109
X2084Y13109
X2560Y16941
X1560Y16941
X3560Y16941
X4560Y16941
X5560Y16941
X6560Y16941
X7560Y16941
X8560Y16941
X10072Y13119
X10072Y12119
X10072Y11119
X10072Y10119
X10072Y9119
X10072Y8119
X10072Y7119
X10072Y6119
X10072Y5119
X10072Y4119
X2950Y24511
X2950Y25495
X2950Y26479
X1650Y26479
X1650Y25495
X1650Y24511
T03
X10316Y23759
X10416Y24759
X10316Y25759
X10416Y26759
X10380Y21382
X10280Y20382
X10380Y19382
X10280Y18382
M30
