G75*
%MOIN*%
%OFA0B0*%
%FSLAX25Y25*%
%IPPOS*%
%LPD*%
%AMOC8*
5,1,8,0,0,1.08239X$1,22.5*
%
%ADD10C,0.00000*%
%ADD11C,0.00800*%
%ADD12C,0.07000*%
%ADD13R,0.07400X0.07400*%
%ADD14C,0.07400*%
%ADD15C,0.07600*%
%ADD16C,0.04165*%
%ADD17C,0.01000*%
D10*
X0005541Y0001089D02*
X0005871Y0276093D01*
X0115964Y0275991D01*
X0115904Y0001000D01*
X0005541Y0001089D01*
D11*
X0020002Y0021178D02*
X0020513Y0021178D01*
X0020513Y0021689D01*
X0020002Y0021689D01*
X0020002Y0021178D01*
X0020258Y0018623D02*
X0020258Y0012489D01*
X0026212Y0009423D02*
X0023145Y0018623D01*
X0027234Y0018623D02*
X0025190Y0012489D01*
X0026212Y0009423D02*
X0027234Y0009423D01*
X0030269Y0012489D02*
X0030269Y0017089D01*
X0030271Y0017167D01*
X0030277Y0017244D01*
X0030287Y0017321D01*
X0030300Y0017398D01*
X0030318Y0017473D01*
X0030339Y0017548D01*
X0030364Y0017621D01*
X0030393Y0017694D01*
X0030426Y0017764D01*
X0030462Y0017833D01*
X0030501Y0017900D01*
X0030544Y0017965D01*
X0030590Y0018027D01*
X0030639Y0018088D01*
X0030691Y0018145D01*
X0030746Y0018200D01*
X0030803Y0018252D01*
X0030864Y0018301D01*
X0030926Y0018347D01*
X0030991Y0018390D01*
X0031058Y0018429D01*
X0031127Y0018465D01*
X0031197Y0018498D01*
X0031270Y0018527D01*
X0031343Y0018552D01*
X0031418Y0018573D01*
X0031493Y0018591D01*
X0031570Y0018604D01*
X0031647Y0018614D01*
X0031724Y0018620D01*
X0031802Y0018622D01*
X0031802Y0018623D02*
X0034358Y0018623D01*
X0034358Y0012489D01*
X0037961Y0012489D02*
X0037961Y0017089D01*
X0037961Y0016067D02*
X0040261Y0016067D01*
X0037962Y0017089D02*
X0037964Y0017164D01*
X0037969Y0017239D01*
X0037979Y0017314D01*
X0037991Y0017388D01*
X0038008Y0017461D01*
X0038028Y0017534D01*
X0038052Y0017605D01*
X0038079Y0017676D01*
X0038109Y0017744D01*
X0038143Y0017812D01*
X0038180Y0017877D01*
X0038220Y0017941D01*
X0038264Y0018002D01*
X0038310Y0018062D01*
X0038359Y0018119D01*
X0038411Y0018173D01*
X0038466Y0018225D01*
X0038522Y0018274D01*
X0038582Y0018320D01*
X0038643Y0018364D01*
X0038707Y0018404D01*
X0038772Y0018441D01*
X0038840Y0018475D01*
X0038908Y0018505D01*
X0038979Y0018532D01*
X0039050Y0018556D01*
X0039123Y0018576D01*
X0039196Y0018593D01*
X0039270Y0018605D01*
X0039345Y0018615D01*
X0039420Y0018620D01*
X0039495Y0018622D01*
X0039495Y0018623D02*
X0041539Y0018623D01*
X0040261Y0016067D02*
X0040345Y0016065D01*
X0040429Y0016059D01*
X0040512Y0016049D01*
X0040595Y0016036D01*
X0040677Y0016018D01*
X0040758Y0015997D01*
X0040838Y0015971D01*
X0040916Y0015943D01*
X0040994Y0015910D01*
X0041069Y0015874D01*
X0041143Y0015834D01*
X0041215Y0015791D01*
X0041285Y0015745D01*
X0041353Y0015695D01*
X0041418Y0015642D01*
X0041481Y0015587D01*
X0041541Y0015528D01*
X0041598Y0015467D01*
X0041652Y0015403D01*
X0041703Y0015336D01*
X0041751Y0015268D01*
X0041796Y0015197D01*
X0041838Y0015124D01*
X0041875Y0015049D01*
X0041910Y0014972D01*
X0041941Y0014894D01*
X0041968Y0014815D01*
X0041991Y0014734D01*
X0042010Y0014653D01*
X0042026Y0014570D01*
X0042038Y0014487D01*
X0042046Y0014404D01*
X0042050Y0014320D01*
X0042050Y0014236D01*
X0042046Y0014152D01*
X0042038Y0014069D01*
X0042026Y0013986D01*
X0042010Y0013903D01*
X0041991Y0013822D01*
X0041968Y0013741D01*
X0041941Y0013662D01*
X0041910Y0013584D01*
X0041875Y0013507D01*
X0041838Y0013432D01*
X0041796Y0013359D01*
X0041751Y0013288D01*
X0041703Y0013220D01*
X0041652Y0013153D01*
X0041598Y0013089D01*
X0041541Y0013028D01*
X0041481Y0012969D01*
X0041418Y0012914D01*
X0041353Y0012861D01*
X0041285Y0012811D01*
X0041215Y0012765D01*
X0041143Y0012722D01*
X0041069Y0012682D01*
X0040994Y0012646D01*
X0040916Y0012613D01*
X0040838Y0012585D01*
X0040758Y0012559D01*
X0040677Y0012538D01*
X0040595Y0012520D01*
X0040512Y0012507D01*
X0040429Y0012497D01*
X0040345Y0012491D01*
X0040261Y0012489D01*
X0037961Y0012489D01*
X0034804Y0028023D02*
X0034804Y0035689D01*
X0038038Y0030578D02*
X0038038Y0028534D01*
X0038039Y0028534D02*
X0038041Y0028445D01*
X0038047Y0028356D01*
X0038056Y0028267D01*
X0038070Y0028179D01*
X0038087Y0028092D01*
X0038109Y0028005D01*
X0038134Y0027919D01*
X0038162Y0027835D01*
X0038195Y0027752D01*
X0038231Y0027670D01*
X0038270Y0027590D01*
X0038313Y0027512D01*
X0038359Y0027436D01*
X0038409Y0027362D01*
X0038461Y0027290D01*
X0038517Y0027220D01*
X0038576Y0027153D01*
X0038638Y0027089D01*
X0038702Y0027027D01*
X0038769Y0026968D01*
X0038839Y0026912D01*
X0038911Y0026860D01*
X0038985Y0026810D01*
X0039061Y0026764D01*
X0039139Y0026721D01*
X0039219Y0026682D01*
X0039301Y0026646D01*
X0039384Y0026613D01*
X0039468Y0026585D01*
X0039554Y0026560D01*
X0039641Y0026538D01*
X0039728Y0026521D01*
X0039816Y0026507D01*
X0039905Y0026498D01*
X0039994Y0026492D01*
X0040083Y0026490D01*
X0040172Y0026492D01*
X0040261Y0026498D01*
X0040350Y0026507D01*
X0040438Y0026521D01*
X0040525Y0026538D01*
X0040612Y0026560D01*
X0040698Y0026585D01*
X0040782Y0026613D01*
X0040865Y0026646D01*
X0040947Y0026682D01*
X0041027Y0026721D01*
X0041105Y0026764D01*
X0041181Y0026810D01*
X0041255Y0026860D01*
X0041327Y0026912D01*
X0041397Y0026968D01*
X0041464Y0027027D01*
X0041528Y0027089D01*
X0041590Y0027153D01*
X0041649Y0027220D01*
X0041705Y0027290D01*
X0041757Y0027362D01*
X0041807Y0027436D01*
X0041853Y0027512D01*
X0041896Y0027590D01*
X0041935Y0027670D01*
X0041971Y0027752D01*
X0042004Y0027835D01*
X0042032Y0027919D01*
X0042057Y0028005D01*
X0042079Y0028092D01*
X0042096Y0028179D01*
X0042110Y0028267D01*
X0042119Y0028356D01*
X0042125Y0028445D01*
X0042127Y0028534D01*
X0042127Y0030578D01*
X0042125Y0030667D01*
X0042119Y0030756D01*
X0042110Y0030845D01*
X0042096Y0030933D01*
X0042079Y0031020D01*
X0042057Y0031107D01*
X0042032Y0031193D01*
X0042004Y0031277D01*
X0041971Y0031360D01*
X0041935Y0031442D01*
X0041896Y0031522D01*
X0041853Y0031600D01*
X0041807Y0031676D01*
X0041757Y0031750D01*
X0041705Y0031822D01*
X0041649Y0031892D01*
X0041590Y0031959D01*
X0041528Y0032023D01*
X0041464Y0032085D01*
X0041397Y0032144D01*
X0041327Y0032200D01*
X0041255Y0032252D01*
X0041181Y0032302D01*
X0041105Y0032348D01*
X0041027Y0032391D01*
X0040947Y0032430D01*
X0040865Y0032466D01*
X0040782Y0032499D01*
X0040698Y0032527D01*
X0040612Y0032552D01*
X0040525Y0032574D01*
X0040438Y0032591D01*
X0040350Y0032605D01*
X0040261Y0032614D01*
X0040172Y0032620D01*
X0040083Y0032622D01*
X0039994Y0032620D01*
X0039905Y0032614D01*
X0039816Y0032605D01*
X0039728Y0032591D01*
X0039641Y0032574D01*
X0039554Y0032552D01*
X0039468Y0032527D01*
X0039384Y0032499D01*
X0039301Y0032466D01*
X0039219Y0032430D01*
X0039139Y0032391D01*
X0039061Y0032348D01*
X0038985Y0032302D01*
X0038911Y0032252D01*
X0038839Y0032200D01*
X0038769Y0032144D01*
X0038702Y0032085D01*
X0038638Y0032023D01*
X0038576Y0031959D01*
X0038517Y0031892D01*
X0038461Y0031822D01*
X0038409Y0031750D01*
X0038359Y0031676D01*
X0038313Y0031600D01*
X0038270Y0031522D01*
X0038231Y0031442D01*
X0038195Y0031360D01*
X0038162Y0031277D01*
X0038134Y0031193D01*
X0038109Y0031107D01*
X0038087Y0031020D01*
X0038070Y0030933D01*
X0038056Y0030845D01*
X0038047Y0030756D01*
X0038041Y0030667D01*
X0038039Y0030578D01*
X0034804Y0028023D02*
X0034802Y0027945D01*
X0034796Y0027868D01*
X0034786Y0027791D01*
X0034773Y0027714D01*
X0034755Y0027639D01*
X0034734Y0027564D01*
X0034709Y0027491D01*
X0034680Y0027418D01*
X0034647Y0027348D01*
X0034611Y0027279D01*
X0034572Y0027212D01*
X0034529Y0027147D01*
X0034483Y0027085D01*
X0034434Y0027024D01*
X0034382Y0026967D01*
X0034327Y0026912D01*
X0034270Y0026860D01*
X0034209Y0026811D01*
X0034147Y0026765D01*
X0034082Y0026722D01*
X0034015Y0026683D01*
X0033946Y0026647D01*
X0033876Y0026614D01*
X0033803Y0026585D01*
X0033730Y0026560D01*
X0033655Y0026539D01*
X0033580Y0026521D01*
X0033503Y0026508D01*
X0033426Y0026498D01*
X0033349Y0026492D01*
X0033271Y0026490D01*
X0044515Y0031600D02*
X0044515Y0032623D01*
X0047582Y0032623D01*
X0047582Y0026489D01*
X0050638Y0026489D02*
X0051150Y0026489D01*
X0051150Y0026490D02*
X0051228Y0026492D01*
X0051305Y0026498D01*
X0051382Y0026508D01*
X0051459Y0026521D01*
X0051534Y0026539D01*
X0051609Y0026560D01*
X0051682Y0026585D01*
X0051755Y0026614D01*
X0051825Y0026647D01*
X0051894Y0026683D01*
X0051961Y0026722D01*
X0052026Y0026765D01*
X0052088Y0026811D01*
X0052149Y0026860D01*
X0052206Y0026912D01*
X0052261Y0026967D01*
X0052313Y0027024D01*
X0052362Y0027085D01*
X0052408Y0027147D01*
X0052451Y0027212D01*
X0052490Y0027279D01*
X0052526Y0027348D01*
X0052559Y0027418D01*
X0052588Y0027491D01*
X0052613Y0027564D01*
X0052634Y0027639D01*
X0052652Y0027714D01*
X0052665Y0027791D01*
X0052675Y0027868D01*
X0052681Y0027945D01*
X0052683Y0028023D01*
X0052683Y0035689D01*
X0053705Y0032623D02*
X0050638Y0032623D01*
X0050398Y0021689D02*
X0050398Y0012489D01*
X0052953Y0021689D02*
X0047842Y0021689D01*
X0045447Y0021689D02*
X0044936Y0021689D01*
X0044936Y0021178D01*
X0045447Y0021178D01*
X0045447Y0021689D01*
X0045192Y0018623D02*
X0045192Y0012489D01*
X0056416Y0026489D02*
X0056416Y0031089D01*
X0056416Y0030067D02*
X0058716Y0030067D01*
X0056417Y0031089D02*
X0056419Y0031164D01*
X0056424Y0031239D01*
X0056434Y0031314D01*
X0056446Y0031388D01*
X0056463Y0031461D01*
X0056483Y0031534D01*
X0056507Y0031605D01*
X0056534Y0031676D01*
X0056564Y0031744D01*
X0056598Y0031812D01*
X0056635Y0031877D01*
X0056675Y0031941D01*
X0056719Y0032002D01*
X0056765Y0032062D01*
X0056814Y0032119D01*
X0056866Y0032173D01*
X0056921Y0032225D01*
X0056977Y0032274D01*
X0057037Y0032320D01*
X0057098Y0032364D01*
X0057162Y0032404D01*
X0057227Y0032441D01*
X0057295Y0032475D01*
X0057363Y0032505D01*
X0057434Y0032532D01*
X0057505Y0032556D01*
X0057578Y0032576D01*
X0057651Y0032593D01*
X0057725Y0032605D01*
X0057800Y0032615D01*
X0057875Y0032620D01*
X0057950Y0032622D01*
X0057950Y0032623D02*
X0059994Y0032623D01*
X0058716Y0030067D02*
X0058800Y0030065D01*
X0058884Y0030059D01*
X0058967Y0030049D01*
X0059050Y0030036D01*
X0059132Y0030018D01*
X0059213Y0029997D01*
X0059293Y0029971D01*
X0059371Y0029943D01*
X0059449Y0029910D01*
X0059524Y0029874D01*
X0059598Y0029834D01*
X0059670Y0029791D01*
X0059740Y0029745D01*
X0059808Y0029695D01*
X0059873Y0029642D01*
X0059936Y0029587D01*
X0059996Y0029528D01*
X0060053Y0029467D01*
X0060107Y0029403D01*
X0060158Y0029336D01*
X0060206Y0029268D01*
X0060251Y0029197D01*
X0060293Y0029124D01*
X0060330Y0029049D01*
X0060365Y0028972D01*
X0060396Y0028894D01*
X0060423Y0028815D01*
X0060446Y0028734D01*
X0060465Y0028653D01*
X0060481Y0028570D01*
X0060493Y0028487D01*
X0060501Y0028404D01*
X0060505Y0028320D01*
X0060505Y0028236D01*
X0060501Y0028152D01*
X0060493Y0028069D01*
X0060481Y0027986D01*
X0060465Y0027903D01*
X0060446Y0027822D01*
X0060423Y0027741D01*
X0060396Y0027662D01*
X0060365Y0027584D01*
X0060330Y0027507D01*
X0060293Y0027432D01*
X0060251Y0027359D01*
X0060206Y0027288D01*
X0060158Y0027220D01*
X0060107Y0027153D01*
X0060053Y0027089D01*
X0059996Y0027028D01*
X0059936Y0026969D01*
X0059873Y0026914D01*
X0059808Y0026861D01*
X0059740Y0026811D01*
X0059670Y0026765D01*
X0059598Y0026722D01*
X0059524Y0026682D01*
X0059449Y0026646D01*
X0059371Y0026613D01*
X0059293Y0026585D01*
X0059213Y0026559D01*
X0059132Y0026538D01*
X0059050Y0026520D01*
X0058967Y0026507D01*
X0058884Y0026497D01*
X0058800Y0026491D01*
X0058716Y0026489D01*
X0056416Y0026489D01*
X0058924Y0015556D02*
X0062758Y0012745D01*
X0062757Y0012745D02*
X0062813Y0012705D01*
X0062871Y0012668D01*
X0062931Y0012635D01*
X0062992Y0012605D01*
X0063055Y0012578D01*
X0063120Y0012555D01*
X0063185Y0012535D01*
X0063252Y0012518D01*
X0063319Y0012506D01*
X0063387Y0012496D01*
X0063456Y0012491D01*
X0063524Y0012489D01*
X0063524Y0012490D02*
X0063599Y0012492D01*
X0063674Y0012497D01*
X0063749Y0012507D01*
X0063823Y0012519D01*
X0063896Y0012536D01*
X0063969Y0012556D01*
X0064040Y0012580D01*
X0064111Y0012607D01*
X0064179Y0012637D01*
X0064247Y0012671D01*
X0064312Y0012708D01*
X0064376Y0012748D01*
X0064437Y0012792D01*
X0064497Y0012838D01*
X0064554Y0012887D01*
X0064608Y0012939D01*
X0064660Y0012994D01*
X0064709Y0013050D01*
X0064755Y0013110D01*
X0064799Y0013171D01*
X0064839Y0013235D01*
X0064876Y0013300D01*
X0064910Y0013368D01*
X0064940Y0013436D01*
X0064967Y0013507D01*
X0064991Y0013578D01*
X0065011Y0013651D01*
X0065028Y0013724D01*
X0065040Y0013798D01*
X0065050Y0013873D01*
X0065055Y0013948D01*
X0065057Y0014023D01*
X0064802Y0014789D02*
X0061736Y0019389D01*
X0061735Y0019389D02*
X0061697Y0019455D01*
X0061661Y0019522D01*
X0061630Y0019592D01*
X0061601Y0019662D01*
X0061577Y0019734D01*
X0061556Y0019808D01*
X0061539Y0019882D01*
X0061525Y0019957D01*
X0061516Y0020033D01*
X0061510Y0020109D01*
X0061508Y0020185D01*
X0061510Y0020261D01*
X0061516Y0020337D01*
X0061525Y0020413D01*
X0061539Y0020488D01*
X0061556Y0020562D01*
X0061577Y0020635D01*
X0061602Y0020707D01*
X0061630Y0020778D01*
X0061662Y0020847D01*
X0061697Y0020915D01*
X0061736Y0020981D01*
X0061778Y0021044D01*
X0061823Y0021106D01*
X0061871Y0021165D01*
X0061922Y0021221D01*
X0061976Y0021275D01*
X0062033Y0021326D01*
X0062092Y0021374D01*
X0062154Y0021419D01*
X0062217Y0021461D01*
X0062283Y0021500D01*
X0062350Y0021535D01*
X0062420Y0021567D01*
X0062490Y0021595D01*
X0062563Y0021620D01*
X0062636Y0021641D01*
X0062710Y0021658D01*
X0062785Y0021672D01*
X0062861Y0021681D01*
X0062937Y0021687D01*
X0063013Y0021689D01*
X0063089Y0021687D01*
X0063165Y0021681D01*
X0063241Y0021672D01*
X0063316Y0021658D01*
X0063390Y0021641D01*
X0063463Y0021620D01*
X0063536Y0021595D01*
X0063606Y0021567D01*
X0063676Y0021535D01*
X0063743Y0021500D01*
X0063809Y0021461D01*
X0063872Y0021419D01*
X0063934Y0021374D01*
X0063993Y0021326D01*
X0064050Y0021275D01*
X0064104Y0021221D01*
X0064155Y0021165D01*
X0064203Y0021106D01*
X0064248Y0021044D01*
X0064290Y0020981D01*
X0064329Y0020915D01*
X0064364Y0020847D01*
X0064396Y0020778D01*
X0064424Y0020707D01*
X0064449Y0020635D01*
X0064470Y0020562D01*
X0064487Y0020488D01*
X0064501Y0020413D01*
X0064510Y0020337D01*
X0064516Y0020261D01*
X0064518Y0020185D01*
X0064516Y0020109D01*
X0064510Y0020033D01*
X0064501Y0019957D01*
X0064487Y0019882D01*
X0064470Y0019808D01*
X0064449Y0019734D01*
X0064425Y0019662D01*
X0064396Y0019592D01*
X0064365Y0019522D01*
X0064329Y0019455D01*
X0064291Y0019389D01*
X0059947Y0012489D01*
X0065058Y0014023D02*
X0065056Y0014092D01*
X0065051Y0014160D01*
X0065041Y0014228D01*
X0065029Y0014295D01*
X0065012Y0014362D01*
X0064992Y0014427D01*
X0064969Y0014492D01*
X0064942Y0014555D01*
X0064912Y0014616D01*
X0064879Y0014676D01*
X0064842Y0014734D01*
X0064802Y0014790D01*
X0068336Y0026489D02*
X0068336Y0035689D01*
X0065781Y0035689D01*
X0065781Y0035690D02*
X0065681Y0035688D01*
X0065580Y0035682D01*
X0065481Y0035672D01*
X0065381Y0035659D01*
X0065282Y0035641D01*
X0065184Y0035619D01*
X0065087Y0035594D01*
X0064991Y0035565D01*
X0064896Y0035532D01*
X0064803Y0035495D01*
X0064711Y0035455D01*
X0064621Y0035411D01*
X0064532Y0035364D01*
X0064445Y0035313D01*
X0064361Y0035259D01*
X0064279Y0035202D01*
X0064199Y0035141D01*
X0064121Y0035078D01*
X0064046Y0035011D01*
X0063974Y0034941D01*
X0063904Y0034869D01*
X0063837Y0034794D01*
X0063774Y0034716D01*
X0063713Y0034636D01*
X0063656Y0034554D01*
X0063602Y0034470D01*
X0063551Y0034383D01*
X0063504Y0034294D01*
X0063460Y0034204D01*
X0063420Y0034112D01*
X0063383Y0034019D01*
X0063350Y0033924D01*
X0063321Y0033828D01*
X0063296Y0033731D01*
X0063274Y0033633D01*
X0063256Y0033534D01*
X0063243Y0033434D01*
X0063233Y0033335D01*
X0063227Y0033234D01*
X0063225Y0033134D01*
X0063227Y0033034D01*
X0063233Y0032933D01*
X0063243Y0032834D01*
X0063256Y0032734D01*
X0063274Y0032635D01*
X0063296Y0032537D01*
X0063321Y0032440D01*
X0063350Y0032344D01*
X0063383Y0032249D01*
X0063420Y0032156D01*
X0063460Y0032064D01*
X0063504Y0031974D01*
X0063551Y0031885D01*
X0063602Y0031798D01*
X0063656Y0031714D01*
X0063713Y0031632D01*
X0063774Y0031552D01*
X0063837Y0031474D01*
X0063904Y0031399D01*
X0063974Y0031327D01*
X0064046Y0031257D01*
X0064121Y0031190D01*
X0064199Y0031127D01*
X0064279Y0031066D01*
X0064361Y0031009D01*
X0064445Y0030955D01*
X0064532Y0030904D01*
X0064621Y0030857D01*
X0064711Y0030813D01*
X0064803Y0030773D01*
X0064896Y0030736D01*
X0064991Y0030703D01*
X0065087Y0030674D01*
X0065184Y0030649D01*
X0065282Y0030627D01*
X0065381Y0030609D01*
X0065481Y0030596D01*
X0065580Y0030586D01*
X0065681Y0030580D01*
X0065781Y0030578D01*
X0068336Y0030578D01*
X0071093Y0031600D02*
X0071093Y0032623D01*
X0074160Y0032623D01*
X0074160Y0026489D01*
X0072847Y0021689D02*
X0072336Y0021689D01*
X0072336Y0021178D01*
X0072847Y0021178D01*
X0072847Y0021689D01*
X0072591Y0018623D02*
X0072591Y0012489D01*
X0076047Y0012489D02*
X0076047Y0017089D01*
X0076047Y0016067D02*
X0078347Y0016067D01*
X0076047Y0017089D02*
X0076049Y0017164D01*
X0076054Y0017239D01*
X0076064Y0017314D01*
X0076076Y0017388D01*
X0076093Y0017461D01*
X0076113Y0017534D01*
X0076137Y0017605D01*
X0076164Y0017676D01*
X0076194Y0017744D01*
X0076228Y0017812D01*
X0076265Y0017877D01*
X0076305Y0017941D01*
X0076349Y0018002D01*
X0076395Y0018062D01*
X0076444Y0018119D01*
X0076496Y0018173D01*
X0076551Y0018225D01*
X0076607Y0018274D01*
X0076667Y0018320D01*
X0076728Y0018364D01*
X0076792Y0018404D01*
X0076857Y0018441D01*
X0076925Y0018475D01*
X0076993Y0018505D01*
X0077064Y0018532D01*
X0077135Y0018556D01*
X0077208Y0018576D01*
X0077281Y0018593D01*
X0077355Y0018605D01*
X0077430Y0018615D01*
X0077505Y0018620D01*
X0077580Y0018622D01*
X0077580Y0018623D02*
X0079625Y0018623D01*
X0078347Y0016067D02*
X0078431Y0016065D01*
X0078515Y0016059D01*
X0078598Y0016049D01*
X0078681Y0016036D01*
X0078763Y0016018D01*
X0078844Y0015997D01*
X0078924Y0015971D01*
X0079002Y0015943D01*
X0079080Y0015910D01*
X0079155Y0015874D01*
X0079229Y0015834D01*
X0079301Y0015791D01*
X0079371Y0015745D01*
X0079439Y0015695D01*
X0079504Y0015642D01*
X0079567Y0015587D01*
X0079627Y0015528D01*
X0079684Y0015467D01*
X0079738Y0015403D01*
X0079789Y0015336D01*
X0079837Y0015268D01*
X0079882Y0015197D01*
X0079924Y0015124D01*
X0079961Y0015049D01*
X0079996Y0014972D01*
X0080027Y0014894D01*
X0080054Y0014815D01*
X0080077Y0014734D01*
X0080096Y0014653D01*
X0080112Y0014570D01*
X0080124Y0014487D01*
X0080132Y0014404D01*
X0080136Y0014320D01*
X0080136Y0014236D01*
X0080132Y0014152D01*
X0080124Y0014069D01*
X0080112Y0013986D01*
X0080096Y0013903D01*
X0080077Y0013822D01*
X0080054Y0013741D01*
X0080027Y0013662D01*
X0079996Y0013584D01*
X0079961Y0013507D01*
X0079924Y0013432D01*
X0079882Y0013359D01*
X0079837Y0013288D01*
X0079789Y0013220D01*
X0079738Y0013153D01*
X0079684Y0013089D01*
X0079627Y0013028D01*
X0079567Y0012969D01*
X0079504Y0012914D01*
X0079439Y0012861D01*
X0079371Y0012811D01*
X0079301Y0012765D01*
X0079229Y0012722D01*
X0079155Y0012682D01*
X0079080Y0012646D01*
X0079002Y0012613D01*
X0078924Y0012585D01*
X0078844Y0012559D01*
X0078763Y0012538D01*
X0078681Y0012520D01*
X0078598Y0012507D01*
X0078515Y0012497D01*
X0078431Y0012491D01*
X0078347Y0012489D01*
X0076047Y0012489D01*
X0077621Y0026489D02*
X0077621Y0032623D01*
X0077365Y0035178D02*
X0077876Y0035178D01*
X0077876Y0035689D01*
X0077365Y0035689D01*
X0077365Y0035178D01*
X0083375Y0035689D02*
X0080308Y0026489D01*
X0081075Y0028789D02*
X0085675Y0028789D01*
X0086441Y0026489D02*
X0083375Y0035689D01*
X0087240Y0013000D02*
X0087046Y0012933D01*
X0086851Y0012870D01*
X0086654Y0012812D01*
X0086456Y0012759D01*
X0086257Y0012711D01*
X0086057Y0012667D01*
X0085856Y0012628D01*
X0085653Y0012594D01*
X0085451Y0012564D01*
X0085247Y0012539D01*
X0085043Y0012519D01*
X0084838Y0012504D01*
X0084634Y0012494D01*
X0084429Y0012489D01*
X0084357Y0012490D01*
X0084285Y0012495D01*
X0084213Y0012504D01*
X0084142Y0012516D01*
X0084072Y0012533D01*
X0084003Y0012553D01*
X0083935Y0012577D01*
X0083868Y0012605D01*
X0083803Y0012636D01*
X0083740Y0012671D01*
X0083679Y0012709D01*
X0083620Y0012750D01*
X0083563Y0012795D01*
X0083509Y0012842D01*
X0083458Y0012893D01*
X0083409Y0012946D01*
X0083363Y0013002D01*
X0083321Y0013060D01*
X0083281Y0013120D01*
X0083245Y0013183D01*
X0083212Y0013247D01*
X0083183Y0013313D01*
X0083158Y0013380D01*
X0083136Y0013449D01*
X0083118Y0013519D01*
X0083104Y0013590D01*
X0083094Y0013661D01*
X0083087Y0013733D01*
X0083085Y0013805D01*
X0083086Y0013877D01*
X0083092Y0013949D01*
X0083101Y0014020D01*
X0083114Y0014091D01*
X0083131Y0014161D01*
X0083152Y0014230D01*
X0083177Y0014298D01*
X0083205Y0014364D01*
X0083236Y0014429D01*
X0083272Y0014492D01*
X0083310Y0014553D01*
X0083352Y0014612D01*
X0083397Y0014668D01*
X0083445Y0014722D01*
X0083496Y0014773D01*
X0083549Y0014821D01*
X0083605Y0014867D01*
X0083664Y0014909D01*
X0083724Y0014948D01*
X0083787Y0014983D01*
X0083852Y0015016D01*
X0083918Y0015044D01*
X0083918Y0015045D02*
X0086473Y0016067D01*
X0086473Y0016068D02*
X0086539Y0016096D01*
X0086604Y0016129D01*
X0086667Y0016164D01*
X0086727Y0016203D01*
X0086786Y0016245D01*
X0086842Y0016291D01*
X0086895Y0016339D01*
X0086946Y0016390D01*
X0086994Y0016444D01*
X0087039Y0016500D01*
X0087081Y0016559D01*
X0087119Y0016620D01*
X0087155Y0016683D01*
X0087186Y0016748D01*
X0087214Y0016814D01*
X0087239Y0016882D01*
X0087260Y0016951D01*
X0087277Y0017021D01*
X0087290Y0017092D01*
X0087299Y0017163D01*
X0087305Y0017235D01*
X0087306Y0017307D01*
X0087304Y0017379D01*
X0087297Y0017451D01*
X0087287Y0017522D01*
X0087273Y0017593D01*
X0087255Y0017663D01*
X0087233Y0017732D01*
X0087208Y0017799D01*
X0087179Y0017865D01*
X0087146Y0017929D01*
X0087110Y0017992D01*
X0087070Y0018052D01*
X0087028Y0018110D01*
X0086982Y0018166D01*
X0086933Y0018219D01*
X0086882Y0018270D01*
X0086828Y0018317D01*
X0086771Y0018362D01*
X0086712Y0018403D01*
X0086651Y0018441D01*
X0086588Y0018476D01*
X0086523Y0018507D01*
X0086456Y0018535D01*
X0086388Y0018559D01*
X0086319Y0018579D01*
X0086249Y0018596D01*
X0086178Y0018608D01*
X0086106Y0018617D01*
X0086034Y0018622D01*
X0085962Y0018623D01*
X0085962Y0018622D02*
X0085814Y0018618D01*
X0085666Y0018611D01*
X0085518Y0018599D01*
X0085371Y0018584D01*
X0085223Y0018565D01*
X0085077Y0018542D01*
X0084931Y0018515D01*
X0084786Y0018485D01*
X0084642Y0018451D01*
X0084498Y0018413D01*
X0084356Y0018372D01*
X0084215Y0018327D01*
X0084074Y0018278D01*
X0083936Y0018226D01*
X0083798Y0018170D01*
X0083662Y0018111D01*
X0090569Y0017089D02*
X0090569Y0012489D01*
X0092869Y0012489D01*
X0092953Y0012491D01*
X0093037Y0012497D01*
X0093120Y0012507D01*
X0093203Y0012520D01*
X0093285Y0012538D01*
X0093366Y0012559D01*
X0093446Y0012585D01*
X0093524Y0012613D01*
X0093602Y0012646D01*
X0093677Y0012682D01*
X0093751Y0012722D01*
X0093823Y0012765D01*
X0093893Y0012811D01*
X0093961Y0012861D01*
X0094026Y0012914D01*
X0094089Y0012969D01*
X0094149Y0013028D01*
X0094206Y0013089D01*
X0094260Y0013153D01*
X0094311Y0013220D01*
X0094359Y0013288D01*
X0094404Y0013359D01*
X0094446Y0013432D01*
X0094483Y0013507D01*
X0094518Y0013584D01*
X0094549Y0013662D01*
X0094576Y0013741D01*
X0094599Y0013822D01*
X0094618Y0013903D01*
X0094634Y0013986D01*
X0094646Y0014069D01*
X0094654Y0014152D01*
X0094658Y0014236D01*
X0094658Y0014320D01*
X0094654Y0014404D01*
X0094646Y0014487D01*
X0094634Y0014570D01*
X0094618Y0014653D01*
X0094599Y0014734D01*
X0094576Y0014815D01*
X0094549Y0014894D01*
X0094518Y0014972D01*
X0094483Y0015049D01*
X0094446Y0015124D01*
X0094404Y0015197D01*
X0094359Y0015268D01*
X0094311Y0015336D01*
X0094260Y0015403D01*
X0094206Y0015467D01*
X0094149Y0015528D01*
X0094089Y0015587D01*
X0094026Y0015642D01*
X0093961Y0015695D01*
X0093893Y0015745D01*
X0093823Y0015791D01*
X0093751Y0015834D01*
X0093677Y0015874D01*
X0093602Y0015910D01*
X0093524Y0015943D01*
X0093446Y0015971D01*
X0093366Y0015997D01*
X0093285Y0016018D01*
X0093203Y0016036D01*
X0093120Y0016049D01*
X0093037Y0016059D01*
X0092953Y0016065D01*
X0092869Y0016067D01*
X0090569Y0016067D01*
X0090569Y0017089D02*
X0090571Y0017164D01*
X0090576Y0017239D01*
X0090586Y0017314D01*
X0090598Y0017388D01*
X0090615Y0017461D01*
X0090635Y0017534D01*
X0090659Y0017605D01*
X0090686Y0017676D01*
X0090716Y0017744D01*
X0090750Y0017812D01*
X0090787Y0017877D01*
X0090827Y0017941D01*
X0090871Y0018002D01*
X0090917Y0018062D01*
X0090966Y0018119D01*
X0091018Y0018173D01*
X0091073Y0018225D01*
X0091129Y0018274D01*
X0091189Y0018320D01*
X0091250Y0018364D01*
X0091314Y0018404D01*
X0091379Y0018441D01*
X0091447Y0018475D01*
X0091515Y0018505D01*
X0091586Y0018532D01*
X0091657Y0018556D01*
X0091730Y0018576D01*
X0091803Y0018593D01*
X0091877Y0018605D01*
X0091952Y0018615D01*
X0092027Y0018620D01*
X0092102Y0018622D01*
X0092102Y0018623D02*
X0094147Y0018623D01*
X0097352Y0017600D02*
X0101441Y0017600D01*
X0101441Y0021689D02*
X0097352Y0021689D01*
X0101441Y0021689D02*
X0101441Y0012489D01*
D12*
X0100717Y0041186D03*
X0100717Y0051186D03*
X0100717Y0061186D03*
X0100717Y0071186D03*
X0100717Y0081186D03*
X0100717Y0091186D03*
X0100717Y0101186D03*
X0100717Y0111186D03*
X0100717Y0121186D03*
X0100717Y0131186D03*
X0085604Y0169413D03*
X0075604Y0169413D03*
X0065604Y0169413D03*
X0055604Y0169413D03*
X0045604Y0169413D03*
X0035604Y0169413D03*
X0025604Y0169413D03*
X0015604Y0169413D03*
X0020841Y0131089D03*
X0020841Y0121089D03*
X0020841Y0111089D03*
X0020841Y0101089D03*
X0020841Y0091089D03*
X0020841Y0081089D03*
X0020841Y0071089D03*
X0020841Y0061089D03*
X0020841Y0051089D03*
X0020841Y0041089D03*
D13*
X0103163Y0237590D03*
X0103797Y0213819D03*
D14*
X0102797Y0203819D03*
X0103797Y0193819D03*
X0102797Y0183819D03*
X0104163Y0247590D03*
X0103163Y0257590D03*
X0104163Y0267590D03*
D15*
X0029496Y0264794D03*
X0029496Y0254952D03*
X0029496Y0245109D03*
X0016504Y0245109D03*
X0016504Y0254952D03*
X0016504Y0264794D03*
D16*
X0022841Y0217089D03*
X0023841Y0178089D03*
X0048841Y0192089D03*
X0057341Y0211589D03*
X0063841Y0204089D03*
X0079841Y0206089D03*
X0083841Y0212089D03*
X0081841Y0220089D03*
X0082841Y0187089D03*
X0067841Y0099089D03*
X0052841Y0096089D03*
X0047841Y0097089D03*
D17*
X0032841Y0081089D01*
X0020841Y0081089D01*
X0020841Y0071089D02*
X0027841Y0071089D01*
X0052841Y0096089D01*
X0067841Y0099089D02*
X0039841Y0127089D01*
X0039841Y0165176D01*
X0035604Y0169413D01*
X0039099Y0169413D01*
X0044699Y0176013D01*
X0058510Y0176013D01*
X0062110Y0169413D01*
X0065604Y0169413D01*
X0065604Y0202326D01*
X0063841Y0204089D01*
X0057341Y0211589D02*
X0056841Y0212089D01*
X0056841Y0214089D01*
X0053841Y0217089D01*
X0022841Y0217089D01*
X0023841Y0178089D02*
X0039841Y0178089D01*
X0048841Y0187089D01*
X0048841Y0192089D01*
X0045604Y0169413D02*
X0045604Y0156298D01*
X0100717Y0101186D01*
X0100717Y0111186D02*
X0100717Y0111214D01*
X0055841Y0156089D01*
X0055841Y0169176D01*
X0055604Y0169413D01*
X0035841Y0159089D02*
X0035841Y0126062D01*
X0100717Y0061186D01*
X0100717Y0071186D02*
X0108841Y0079311D01*
X0108841Y0160089D01*
X0082841Y0186089D01*
X0082841Y0187089D01*
X0079841Y0206089D02*
X0079841Y0215089D01*
X0081841Y0217089D01*
X0081841Y0220089D01*
X0083841Y0212089D02*
X0102068Y0212089D01*
X0103797Y0213819D01*
X0103527Y0214089D01*
X0111444Y0233310D02*
X0111444Y0188090D01*
X0103068Y0184090D01*
X0102797Y0183819D01*
X0111444Y0233310D02*
X0103163Y0237590D01*
X0025604Y0169326D02*
X0035841Y0159089D01*
X0025604Y0169326D02*
X0025604Y0169413D01*
X0015604Y0169413D02*
X0010281Y0164089D01*
X0010237Y0164089D01*
X0010237Y0061694D01*
X0020841Y0051089D01*
X0020841Y0101089D02*
X0021841Y0101089D01*
X0028841Y0108089D01*
X0028841Y0123089D01*
X0020841Y0131089D01*
X0010237Y0164089D02*
X0010237Y0164089D01*
M02*
